C:\Users\r0593348\3dpredictsim\Results\batch_windlass\Pog_s1_tmt_bCst_d05_k1500_WL40_ig24_pas_GRF.mot
nRows=10
nColumns=19

name C:\Users\r0593348\3dpredictsim\Results\batch_windlass\Pog_s1_tmt_bCst_d05_k1500_WL40_ig24_pas_GRF.mot
datacolumns 19
datarows 10
range 0.5537587296 0.6534353009
endheader
time 	ground_force_vx	ground_force_vy	ground_force_vz	ground_force_px	ground_force_py	ground_force_pz	1_ground_force_vx	1_ground_force_vy	1_ground_force_vz	1_ground_force_px	1_ground_force_py	1_ground_force_pz	ground_torque_x	ground_torque_y	ground_torque_z	1_ground_torque_x	1_ground_torque_y	1_ground_torque_z
        0.5537587296	       80.1333252839	      428.5444300091	        0.9303179075	        0.3711111978	        0.0000000000	        0.0328168661	      -67.7492254448	       48.9181063180	      -17.2946500351	        0.8451383160	        0.0000000000	       -0.0445534863	        0.0000000000	        0.0000000000	        0.0000000000	        0.0000000000	        0.0000000000	        0.0000000000	
        0.5648339042	       55.5657955359	      332.9942435642	        7.5916304625	        0.3773685703	        0.0000000000	        0.0302287373	     -119.9828265753	      107.6240062052	      -40.1562929592	        0.8555269104	        0.0000000000	       -0.0420093384	        0.0000000000	        0.0000000000	        0.0000000000	        0.0000000000	        0.0000000000	        0.0000000000	
        0.5759090788	       26.7492210325	      235.5359950643	       15.5838615291	        0.3871392758	        0.0000000000	        0.0255751710	      -98.0650576685	      226.8946052354	      -59.7800125130	        0.8634329916	        0.0000000000	       -0.0406826028	        0.0000000000	        0.0000000000	        0.0000000000	        0.0000000000	        0.0000000000	        0.0000000000	
        0.5869842534	        8.6539964568	      164.3001248618	       16.7973311081	        0.3986436731	        0.0000000000	        0.0189769562	      -53.1046778816	      430.5881473955	      -10.5691832901	        0.8698286313	        0.0000000000	       -0.0402995724	        0.0000000000	        0.0000000000	        0.0000000000	        0.0000000000	        0.0000000000	        0.0000000000	
        0.5980594280	       -1.1376612288	      132.5290875229	       13.1201137035	        0.3983196548	        0.0000000000	        0.0188461692	      -74.3122215609	      676.8334293841	        9.3460430234	        0.8796268436	        0.0000000000	       -0.0427876409	        0.0000000000	        0.0000000000	        0.0000000000	        0.0000000000	        0.0000000000	        0.0000000000	
        0.6091346026	       -6.8167601476	       89.7918532292	        9.6062098076	        0.3984199316	        0.0000000000	        0.0186756648	     -102.1029079428	      840.9521729964	       17.0666061227	        0.8859673279	        0.0000000000	       -0.0444399021	        0.0000000000	        0.0000000000	        0.0000000000	        0.0000000000	        0.0000000000	        0.0000000000	
        0.6202097771	      -14.1862131974	       37.4034916453	        5.2451693935	        0.3972472043	        0.0000000000	        0.0186108753	     -113.3510856818	      903.9849133183	       19.4156455570	        0.8906036474	        0.0000000000	       -0.0454513180	        0.0000000000	        0.0000000000	        0.0000000000	        0.0000000000	        0.0000000000	        0.0000000000	
        0.6312849517	        0.1478037450	       -0.1471902702	        0.0011111918	        0.0000000000	        0.0000000000	        0.0000000000	     -116.8636208139	      917.3427281218	       19.7590473712	        0.8951500415	        0.0000000000	       -0.0459364849	        0.0000000000	        0.0000000000	        0.0000000000	        0.0000000000	        0.0000000000	        0.0000000000	
        0.6423601263	        0.0004777515	       -0.0003989002	        0.0000283002	        0.0000000000	        0.0000000000	        0.0000000000	     -109.3602883719	      897.4274966376	       17.8942623030	        0.8993571123	        0.0000000000	       -0.0459494490	        0.0000000000	        0.0000000000	        0.0000000000	        0.0000000000	        0.0000000000	        0.0000000000	
        0.6534353009	        0.0001466076	       -0.0001074469	        0.0000101761	        0.0000000000	        0.0000000000	        0.0000000000	      -97.8634669425	      854.6168039312	       17.8777588203	        0.9043169255	        0.0000000000	       -0.0458016206	        0.0000000000	        0.0000000000	        0.0000000000	        0.0000000000	        0.0000000000	        0.0000000000	
